<svg width="24" height="25" viewBox="0 0 24 25" fill="none" xmlns="http://www.w3.org/2000/svg">
<path d="M23.414 21.086L18.337 16.009C19.386 14.428 20 12.535 20 10.5C20 4.986 15.514 0.5 10 0.5C4.486 0.5 0 4.986 0 10.5C0 16.014 4.486 20.5 10 20.5C12.035 20.5 13.928 19.886 15.509 18.837L20.586 23.914C21.366 24.695 22.634 24.695 23.414 23.914C24.195 23.133 24.195 21.867 23.414 21.086ZM3 10.5C3 6.64 6.14 3.5 10 3.5C13.86 3.5 17 6.64 17 10.5C17 14.36 13.86 17.5 10 17.5C6.14 17.5 3 14.36 3 10.5Z" fill="white"/>
</svg>
